<svg id="Layer_1" enable-background="new 0 0 512.033 512.033" height="512" viewBox="0 0 512.033 512.033" width="512" xmlns="http://www.w3.org/2000/svg"><g><path d="m512.016 178.048v-22.548c-.031-2.298-1.123-4.906-3.564-6.384l-232.78-143.51c-12.124-7.475-27.188-7.475-39.312 0l-232.78 143.51c-1.939 1.233-3.587 3.53-3.564 6.384v22.547c-.139 17.638 15.693 31.899 33.464 30.047-2.208 4.063-3.464 8.716-3.464 13.658 0 16.248 13.719 29.445 30 28.658v94.058c0 4.142 3.358 7.5 7.5 7.5s7.5-3.358 7.5-7.5v-94.058h45.251v174.244h-45.251v-45.186c0-4.142-3.358-7.5-7.5-7.5s-7.5 3.358-7.5 7.5v45.186c-16.212-.513-30 12.18-30 28.658 0 4.942 1.256 9.595 3.464 13.658h-15.964c-9.649 0-17.5 7.86-17.5 17.521v10.021c0 9.661 7.851 17.521 17.5 17.521h477c9.649 0 17.5-7.86 17.5-17.521v-10.021c0-9.661-7.851-17.521-17.5-17.521h-15.964c2.208-4.062 3.464-8.716 3.464-13.658 0-16.382-13.725-29.353-30-28.658v-174.243c16.113.508 30-12.169 30-28.658 0-4.942-1.256-9.596-3.464-13.658 17.366 1.061 33.595-11.657 33.464-30.047zm-453.386 57.363c-7.507 0-13.614-6.127-13.614-13.658s6.107-13.658 13.614-13.658h78.024c7.507 0 13.614 6.127 13.614 13.658s-6.107 13.658-13.614 13.658zm103.174-27.316h30.051c-2.208 4.063-3.464 8.716-3.464 13.658 0 16.248 13.719 29.445 30 28.658v174.244c-16.208-.508-30 12.176-30 28.658 0 4.942 1.256 9.595 3.464 13.658h-30.051c2.208-4.062 3.464-8.716 3.464-13.658 0-16.381-13.725-29.353-30-28.658v-174.244c16.12.508 30-12.169 30-28.658 0-4.942-1.256-9.596-3.464-13.658zm158.374 0h30.051c-2.208 4.063-3.464 8.716-3.464 13.658 0 16.248 13.719 29.445 30 28.658v174.244c-16.204-.502-30 12.173-30 28.658 0 4.942 1.256 9.595 3.464 13.658h-30.051c2.208-4.062 3.464-8.716 3.464-13.658 0-16.382-13.725-29.353-30-28.658v-174.244c16.116.509 30-12.169 30-28.658 0-4.942-1.256-9.596-3.464-13.658zm-25.149 231.559c7.506 0 13.613 6.127 13.613 13.658s-6.107 13.658-13.613 13.658h-78.024c-7.506 0-13.613-6.127-13.613-13.658s6.107-13.658 13.613-13.658zm-61.638-15v-174.243h45.251v174.244h-45.251zm61.638-189.243h-78.024c-7.506 0-13.613-6.127-13.613-13.658s6.107-13.658 13.613-13.658h78.024c7.506 0 13.613 6.127 13.613 13.658s-6.107 13.658-13.613 13.658zm-236.399 204.243h78.024c7.507 0 13.614 6.127 13.614 13.658s-6.107 13.658-13.614 13.658h-78.024c-7.507 0-13.614-6.127-13.614-13.658s6.107-13.658 13.614-13.658zm435.886 42.316c1.378 0 2.5 1.131 2.5 2.521v10.021c0 1.39-1.122 2.521-2.5 2.521h-477c-1.378 0-2.5-1.131-2.5-2.521v-10.021c0-1.39 1.122-2.521 2.5-2.521zm-41.113-42.316c7.507 0 13.614 6.127 13.614 13.658s-6.107 13.658-13.614 13.658h-78.024c-7.507 0-13.614-6.127-13.614-13.658s6.107-13.658 13.614-13.658zm-61.638-15v-174.243h45.251v174.244h-45.251zm61.638-189.243h-78.024c-7.507 0-13.614-6.127-13.614-13.658s6.107-13.658 13.614-13.658h78.024c7.507 0 13.614 6.127 13.614 13.658-.001 7.531-6.108 13.658-13.614 13.658zm-423.387-42.316c-8.271 0-15-6.75-15-15.047v-15.048h346.51c4.142 0 7.5-3.358 7.5-7.5s-3.358-7.5-7.5-7.5h-327.553l210.26-129.625c7.269-4.481 16.299-4.481 23.567 0l210.259 129.625h-81.533c-4.142 0-7.5 3.358-7.5 7.5s3.358 7.5 7.5 7.5h100.49v15.047c0 8.297-6.729 15.047-15 15.047h-452zm219.044-130.605h24.346c4.142 0 7.5-3.358 7.5-7.5s-3.358-7.5-7.5-7.5h-9.89v-5.602c0-4.142-3.358-7.5-7.5-7.5s-7.5 3.358-7.5 7.5v5.631c-9.636.313-17.39 8.809-17.39 19.233v7.841c0 4.978 1.756 9.7 4.945 13.294 3.365 3.793 8.099 5.969 12.989 5.968h13.911c1.388 0 2.934 1.75 2.934 4.263v7.842c0 2.512-1.546 4.263-2.934 4.263h-24.346c-4.142 0-7.5 3.358-7.5 7.5s3.358 7.5 7.5 7.5h9.89v5.602c0 4.142 3.358 7.5 7.5 7.5s7.5-3.358 7.5-7.5v-5.631c9.636-.313 17.39-8.809 17.39-19.233v-7.842c0-10.622-8.045-19.263-17.935-19.263h-13.911c-2.054-.059-2.915-2.493-2.934-4.263v-7.841c.002-2.512 1.548-4.262 2.935-4.262z" fill="rgb(0,0,0)"/></g></svg>