<svg id="Capa_1" enable-background="new 0 0 512 512" height="512" viewBox="0 0 512 512" width="512" xmlns="http://www.w3.org/2000/svg"><g><path d="m376 303.076v-288.076c0-8.284-6.716-15-15-15h-300c-8.284 0-15 6.716-15 15v422c0 8.284 6.716 15 15 15h205.145c16.882 35.443 53.053 60 94.855 60 57.897 0 105-47.103 105-105 0-52.804-39.183-96.623-90-103.924zm-300 118.924v-392h270v273.076c-50.817 7.301-90 51.119-90 103.924 0 5.093.372 10.099 1.076 15zm285 60c-41.355 0-75-33.645-75-75s33.645-75 75-75 75 33.645 75 75-33.645 75-75 75z"/><path d="m380.394 373.894-34.394 34.393-11.894-11.893c-5.857-5.858-15.355-5.858-21.213 0s-5.858 15.355 0 21.213l22.5 22.5c2.929 2.929 6.768 4.394 10.606 4.394s7.678-1.464 10.606-4.394l45-45c5.858-5.858 5.858-15.355 0-21.213-5.856-5.859-15.354-5.859-21.211 0z"/><circle cx="121" cy="107" r="15"/><circle cx="121" cy="167" r="15"/><circle cx="121" cy="227" r="15"/><circle cx="121" cy="287" r="15"/><path d="m181 122h120c8.284 0 15-6.716 15-15s-6.716-15-15-15h-120c-8.284 0-15 6.716-15 15s6.716 15 15 15z"/><path d="m181 182h120c8.284 0 15-6.716 15-15s-6.716-15-15-15h-120c-8.284 0-15 6.716-15 15s6.716 15 15 15z"/><path d="m181 242h120c8.284 0 15-6.716 15-15s-6.716-15-15-15h-120c-8.284 0-15 6.716-15 15s6.716 15 15 15z"/><path d="m241 272h-60c-8.284 0-15 6.716-15 15s6.716 15 15 15h60c8.284 0 15-6.716 15-15s-6.716-15-15-15z"/></g></svg>