<svg id="Capa_1" enable-background="new 0 0 512 512" height="512" viewBox="0 0 512 512" width="512" xmlns="http://www.w3.org/2000/svg"><g><g><path d="m72 434.37h-44.3c-7.003 0-12.7-5.697-12.7-12.7v-279.39h409.37c4.142 0 7.5-3.358 7.5-7.5s-3.358-7.5-7.5-7.5h-409.37v-36.95c0-7.003 5.697-12.7 12.7-12.7h44.3c4.142 0 7.5-3.358 7.5-7.5s-3.358-7.5-7.5-7.5h-44.3c-15.274 0-27.7 12.426-27.7 27.7v331.34c0 15.274 12.426 27.7 27.7 27.7h44.3c4.142 0 7.5-3.358 7.5-7.5s-3.358-7.5-7.5-7.5z"/><path d="m484.3 62.63h-377.3c-4.142 0-7.5 3.358-7.5 7.5s3.358 7.5 7.5 7.5h377.3c7.003 0 12.7 5.697 12.7 12.7v36.95h-37.63c-4.142 0-7.5 3.358-7.5 7.5s3.358 7.5 7.5 7.5h37.63v279.39c0 7.003-5.697 12.7-12.7 12.7h-377.3c-4.142 0-7.5 3.358-7.5 7.5s3.358 7.5 7.5 7.5h377.3c15.274 0 27.7-12.426 27.7-27.7v-331.34c0-15.274-12.426-27.7-27.7-27.7z"/><path d="m52.2 249.939c0 39.784 32.367 72.15 72.15 72.15s72.15-32.367 72.15-72.15-32.367-72.15-72.15-72.15-72.15 32.366-72.15 72.15zm32.703 41.293c10.03-11.13 24.373-17.63 39.448-17.63s29.418 6.5 39.448 17.63c-10.266 9.812-24.16 15.857-39.448 15.857s-29.182-6.046-39.448-15.857zm22.703-49.374c0-9.233 7.511-16.744 16.744-16.744 9.232 0 16.744 7.511 16.744 16.744 0 9.232-7.511 16.744-16.744 16.744-9.232 0-16.744-7.512-16.744-16.744zm73.895 8.081c0 10.776-3.001 20.864-8.207 29.476-7.11-7.347-15.748-12.97-25.209-16.509 4.978-5.607 8.01-12.978 8.01-21.048 0-17.504-14.24-31.744-31.744-31.744s-31.744 14.24-31.744 31.744c0 8.07 3.032 15.442 8.01 21.048-9.462 3.539-18.099 9.162-25.209 16.509-5.206-8.612-8.207-18.699-8.207-29.476 0-31.513 25.638-57.15 57.15-57.15s57.15 25.637 57.15 57.15z"/><path d="m279.409 202.628c-1.403-4.316-5.065-7.403-9.556-8.055l-9.688-1.408-4.332-8.777c-2.008-4.07-6.076-6.599-10.614-6.599 0 0 0 0-.001 0-4.539 0-8.606 2.528-10.615 6.599l-4.332 8.778-9.686 1.408c-4.492.652-8.154 3.74-9.557 8.057s-.255 8.967 2.995 12.134l7.01 6.833-1.655 9.647c-.768 4.474 1.037 8.91 4.708 11.578 2.075 1.508 4.503 2.273 6.947 2.273 1.881 0 3.772-.454 5.52-1.372l8.664-4.556 8.665 4.556c4.017 2.111 8.793 1.766 12.466-.901 3.672-2.668 5.477-7.104 4.709-11.578l-1.655-9.648 7.01-6.833c3.252-3.169 4.4-7.819 2.997-12.136zm-21.665 9.388c-2.791 2.72-4.063 6.636-3.405 10.478l.853 4.971-4.465-2.348c-3.449-1.812-7.567-1.812-11.015 0l-4.464 2.347.853-4.971c.658-3.839-.614-7.756-3.404-10.477l-3.612-3.521 4.99-.725c3.856-.56 7.189-2.981 8.914-6.476l2.232-4.523 2.232 4.523c1.725 3.495 5.057 5.916 8.913 6.475l4.991.726z"/><path d="m365.624 202.629c-1.402-4.317-5.064-7.404-9.556-8.056l-9.687-1.408-4.333-8.777c-2.009-4.07-6.076-6.599-10.615-6.599s-8.606 2.529-10.615 6.599l-4.333 8.778-9.686 1.408c-4.492.652-8.154 3.739-9.557 8.056s-.255 8.967 2.995 12.135l7.01 6.833-1.655 9.648c-.767 4.474 1.038 8.91 4.709 11.578 3.674 2.668 8.449 3.013 12.466.901l8.665-4.556 8.665 4.556c1.747.918 3.638 1.372 5.52 1.372 2.444 0 4.872-.766 6.947-2.273 3.672-2.668 5.476-7.104 4.708-11.578l-1.655-9.648 7.009-6.833c3.253-3.169 4.401-7.819 2.998-12.136zm-21.666 9.387c-2.791 2.72-4.063 6.636-3.405 10.478l.853 4.971-4.465-2.348c-3.448-1.813-7.566-1.812-11.014 0h-.001l-4.464 2.347.853-4.971c.659-3.841-.614-7.757-3.404-10.477l-3.612-3.521 4.99-.725c3.856-.56 7.189-2.981 8.914-6.476l2.232-4.523 2.232 4.523c1.725 3.495 5.057 5.916 8.913 6.475l4.991.726z"/><path d="m428.264 184.387c-2.009-4.07-6.077-6.598-10.616-6.598s-8.606 2.529-10.614 6.599l-4.332 8.778-9.687 1.408c-4.492.652-8.154 3.739-9.557 8.056s-.255 8.967 2.995 12.135l7.01 6.833-1.655 9.648c-.767 4.474 1.038 8.91 4.71 11.578 3.673 2.668 8.45 3.013 12.466.901l8.665-4.556 8.665 4.556c1.747.918 3.638 1.372 5.52 1.372 2.444 0 4.872-.766 6.947-2.273 3.672-2.668 5.476-7.104 4.708-11.577l-1.655-9.648 7.009-6.833c3.25-3.168 4.398-7.818 2.996-12.135s-5.064-7.404-9.556-8.056l-9.687-1.408zm1.908 27.63c-2.79 2.721-4.062 6.638-3.403 10.476l.853 4.971-4.465-2.348c-3.448-1.812-7.566-1.812-11.015 0h-.001l-4.464 2.347.853-4.971c.659-3.841-.614-7.757-3.404-10.477l-3.612-3.521 4.99-.725c3.857-.56 7.189-2.98 8.915-6.476l2.232-4.523 2.232 4.523c1.725 3.495 5.057 5.916 8.913 6.475l4.991.726z"/><path d="m217.942 277.642h78.136c4.142 0 7.5-3.358 7.5-7.5s-3.358-7.5-7.5-7.5h-78.136c-4.142 0-7.5 3.358-7.5 7.5s3.358 7.5 7.5 7.5z"/><path d="m452.3 294.967h-132.634c-4.142 0-7.5 3.358-7.5 7.5s3.358 7.5 7.5 7.5h132.634c4.142 0 7.5-3.358 7.5-7.5s-3.358-7.5-7.5-7.5z"/><path d="m452.3 327.292h-39.043c-4.142 0-7.5 3.358-7.5 7.5s3.358 7.5 7.5 7.5h39.043c4.142 0 7.5-3.358 7.5-7.5s-3.358-7.5-7.5-7.5z"/><path d="m249.611 294.967c-4.142 0-7.5 3.358-7.5 7.5s3.358 7.5 7.5 7.5h37.729c4.142 0 7.5-3.358 7.5-7.5s-3.358-7.5-7.5-7.5z"/><path d="m380.932 342.292c4.142 0 7.5-3.358 7.5-7.5s-3.358-7.5-7.5-7.5h-20.203-142.785-.002c-4.142 0-7.5 3.358-7.5 7.5s3.358 7.5 7.5 7.5h.002 142.784z"/><path d="m217.944 359.618c-4.142 0-7.5 3.358-7.5 7.5s3.358 7.5 7.5 7.5h122.581c4.142 0 7.5-3.358 7.5-7.5s-3.358-7.5-7.5-7.5z"/><circle cx="449.951" cy="102.455" r="8.081"/><circle cx="417.626" cy="102.455" r="8.081"/><circle cx="385.301" cy="102.455" r="8.081"/></g></g></svg>